<svg width="720" height="1260" viewBox="0 0 720 1260" fill="none" xmlns="http://www.w3.org/2000/svg">
  <defs>
    <linearGradient id="bg2" x1="40" y1="20" x2="680" y2="1220" gradientUnits="userSpaceOnUse">
      <stop stop-color="#FAF4EB"/>
      <stop offset="1" stop-color="#FBE7D7"/>
    </linearGradient>
    <linearGradient id="btn2" x1="0" y1="0" x2="140" y2="70" gradientUnits="userSpaceOnUse">
      <stop stop-color="#FFC29F"/>
      <stop offset="1" stop-color="#FFAE83"/>
    </linearGradient>
  </defs>
  <rect width="720" height="1260" rx="32" fill="url(#bg2)"/>
  <rect x="10" y="10" width="700" height="1240" rx="34" fill="#FFFDF9" stroke="#F1D8C7" stroke-width="2"/>

  <text x="34" y="88" fill="#202838" font-size="34" font-weight="700" font-family="Arial, PingFang SC, Microsoft YaHei, sans-serif">插件配置</text>
  <text x="34" y="128" fill="#667188" font-size="20" font-family="Arial, PingFang SC, Microsoft YaHei, sans-serif">配置 API Key、城市 ID、搜索关键词、总点击上限与 AI 关键词生成。</text>
  <rect x="636" y="34" width="58" height="58" rx="18" fill="#FFFFFF" stroke="#E0E0E0" stroke-width="2"/>
  <path d="M650 70L665 55L680 70" stroke="#202838" stroke-width="4" stroke-linecap="round" stroke-linejoin="round"/>
  <line x1="10" y1="170" x2="710" y2="170" stroke="#F0D8C7" stroke-width="2"/>

  <text x="34" y="230" fill="#667188" font-size="20" font-weight="700" font-family="Arial, PingFang SC, Microsoft YaHei, sans-serif">DeepSeek API Key</text>
  <rect x="34" y="250" width="500" height="78" rx="28" fill="#FFFFFF" stroke="#D8D8D8" stroke-width="2"/>
  <text x="60" y="298" fill="#202838" font-size="30" font-weight="700" letter-spacing="3" font-family="Arial, PingFang SC, Microsoft YaHei, sans-serif">••••••••••••••••••••••••</text>
  <rect x="462" y="260" width="60" height="58" rx="18" fill="#F8F8F8" stroke="#E3E3E3" stroke-width="2"/>
  <path d="M476 287C482 279 490 275 499 275C509 275 517 280 523 289" stroke="#7A8499" stroke-width="3" stroke-linecap="round"/>
  <path d="M476 302L523 276" stroke="#7A8499" stroke-width="3" stroke-linecap="round"/>
  <circle cx="499" cy="289" r="7" stroke="#7A8499" stroke-width="3"/>
  <rect x="556" y="250" width="138" height="78" rx="28" fill="url(#btn2)"/>
  <text x="582" y="298" fill="white" font-size="22" font-weight="700" font-family="Arial, PingFang SC, Microsoft YaHei, sans-serif">保存配置</text>

  <text x="34" y="396" fill="#667188" font-size="20" font-weight="700" font-family="Arial, PingFang SC, Microsoft YaHei, sans-serif">城市 ID 列表</text>
  <rect x="34" y="418" width="660" height="158" rx="28" fill="#FFFFFF" stroke="#D8D8D8" stroke-width="2"/>
  <text x="58" y="468" fill="#6D6D6D" font-size="20" font-family="Arial, PingFang SC, Microsoft YaHei, sans-serif">例如：101250100</text>
  <text x="58" y="508" fill="#6D6D6D" font-size="20" font-family="Arial, PingFang SC, Microsoft YaHei, sans-serif">101280600</text>
  <text x="34" y="620" fill="#667188" font-size="18" font-family="Arial, PingFang SC, Microsoft YaHei, sans-serif">每行一个，支持直接粘贴职位列表 URL 自动提取 cityId。</text>

  <text x="34" y="690" fill="#667188" font-size="20" font-weight="700" font-family="Arial, PingFang SC, Microsoft YaHei, sans-serif">搜索关键词</text>
  <rect x="34" y="712" width="660" height="158" rx="28" fill="#FFFFFF" stroke="#D8D8D8" stroke-width="2"/>
  <text x="58" y="762" fill="#6D6D6D" font-size="20" font-family="Arial, PingFang SC, Microsoft YaHei, sans-serif">例如：AI应用工程师</text>
  <text x="58" y="802" fill="#6D6D6D" font-size="20" font-family="Arial, PingFang SC, Microsoft YaHei, sans-serif">AI Agent</text>
  <text x="34" y="914" fill="#667188" font-size="18" font-family="Arial, PingFang SC, Microsoft YaHei, sans-serif">至少保留 1 个关键词，才允许启动自动执行。</text>

  <text x="34" y="980" fill="#667188" font-size="20" font-weight="700" font-family="Arial, PingFang SC, Microsoft YaHei, sans-serif">本次运行总点击上限</text>
  <rect x="34" y="1002" width="660" height="76" rx="26" fill="#FFFFFF" stroke="#D8D8D8" stroke-width="2"/>
  <text x="58" y="1049" fill="#202838" font-size="22" font-family="Arial, PingFang SC, Microsoft YaHei, sans-serif">30</text>

  <text x="34" y="1128" fill="#667188" font-size="20" font-weight="700" font-family="Arial, PingFang SC, Microsoft YaHei, sans-serif">关键词生成描述</text>
  <rect x="34" y="1148" width="412" height="76" rx="24" fill="#FFFFFF" stroke="#D8D8D8" stroke-width="2"/>
  <text x="58" y="1195" fill="#6D6D6D" font-size="18" font-family="Arial, PingFang SC, Microsoft YaHei, sans-serif">例如：远程优先、偏 AI Agent 落地、产品化研发</text>
  <rect x="468" y="1148" width="226" height="76" rx="24" fill="#FFF7F0" stroke="#F2CDB8" stroke-width="2"/>
  <text x="522" y="1195" fill="#D95E28" font-size="20" font-weight="700" font-family="Arial, PingFang SC, Microsoft YaHei, sans-serif">AI生成关键词</text>

  <text x="34" y="1240" fill="#9A8D80" font-size="16" font-family="Arial, PingFang SC, Microsoft YaHei, sans-serif">配置界面示意图 · 已做脱敏处理</text>
</svg>
